# xmcd CD database file
#
# Track frame offsets:
#	151
#	14061
#	37593
#	52925
#	83303
#	98006
#	112258
#	126386
#	149391
#	164004
#	179222
#	194434
#	211414
#	241428
#	280966
#	306802
#
# Disc length: 4425 seconds
#
# Revision: 0
# Processed by: cddbd v1.4PL0 Copyright (c) Steve Scherf et al.
# Submitted via: CDex 1.40Beta8
#
DISCID=e9114710
DTITLE=Luis Armstrong - Hits
DYEAR=2000
DGENRE=Blues
TTITLE0=C'est Si Bon
TTITLE1=That's For Me
TTITLE2=La Vie En Rose
TTITLE3=New Orleans Function
TTITLE4=You Can't Loose A Broken Heart
TTITLE5=You Rascal You
TTITLE6=Dream A Little Dream Of Me
TTITLE7=Panama
TTITLE8=Can Anyone Explain?
TTITLE9=Life Is So Peculiar
TTITLE10=My Sweet Hunk O' Trash
TTITLE11=My Bucket's Got A Hole In It
TTITLE12=I Surrender Dear
TTITLE13=Bugle Call Rag
TTITLE14=12th Street Rag
TTITLE15=Russian Lullaby
EXTD=YEAR: 2000 ID3G: 0
EXTT0=
EXTT1=
EXTT2=
EXTT3=
EXTT4=
EXTT5=
EXTT6=
EXTT7=
EXTT8=
EXTT9=
EXTT10=
EXTT11=
EXTT12=
EXTT13=
EXTT14=
EXTT15=
PLAYORDER=
